# This file uses centimeters as units for non-parametric coordinates.

mtllib house.mtl
g default
v -0.500000 0.010023 0.500000
v 0.500000 0.010023 0.500000
v -0.500000 1.010023 0.500000
v 0.500000 1.010023 0.500000
v -0.500000 1.010023 -0.500000
v 0.500000 1.010023 -0.500000
v -0.500000 0.010023 -0.500000
v 0.500000 0.010023 -0.500000
v 0.000000 1.382448 0.500000
v 0.000000 1.382448 -0.500000
vt 0.375000 0.000000
vt 0.625000 0.000000
vt 0.375000 0.250000
vt 0.625000 0.250000
vt 0.375000 0.500000
vt 0.625000 0.500000
vt 0.375000 0.750000
vt 0.625000 0.750000
vt 0.375000 1.000000
vt 0.625000 1.000000
vt 0.875000 0.000000
vt 0.875000 0.250000
vt 0.125000 0.000000
vt 0.125000 0.250000
vt 0.500000 0.250000
vt 0.500000 0.500000
vn 0.000000 0.000000 1.000000
vn 0.000000 0.000000 1.000000
vn 0.000000 0.000000 1.000000
vn 0.000000 0.000000 1.000000
vn 0.000000 0.000000 1.000000
vn -0.597353 0.801979 0.000000
vn 0.000000 1.000000 0.000000
vn -0.597353 0.801979 0.000000
vn 0.000000 1.000000 0.000000
vn 0.000000 0.000000 -1.000000
vn 0.000000 0.000000 -1.000000
vn 0.000000 0.000000 -1.000000
vn 0.000000 0.000000 -1.000000
vn 0.000000 0.000000 -1.000000
vn 0.000000 -1.000000 0.000000
vn 0.000000 -1.000000 0.000000
vn 0.000000 -1.000000 0.000000
vn 0.000000 -1.000000 0.000000
vn 1.000000 0.000000 0.000000
vn 1.000000 0.000000 0.000000
vn 1.000000 0.000000 0.000000
vn 1.000000 0.000000 0.000000
vn -1.000000 0.000000 0.000000
vn -1.000000 0.000000 0.000000
vn -1.000000 0.000000 0.000000
vn -1.000000 0.000000 0.000000
vn 0.597353 0.801979 0.000000
vn 0.597353 0.801979 0.000000
s 1
g pCube1
usemtl initialShadingGroup
f 1/1/1 2/2/2 3/3/3
f 2/2/2 4/4/4 3/3/3
f 4/4/4 9/15/5 3/3/3
s 2
usemtl lambert2SG
f 3/3/6 9/15/7 5/5/8
f 5/5/8 9/15/7 10/16/9
s 3
usemtl initialShadingGroup
f 8/8/10 7/7/11 6/6/12
f 7/7/11 5/5/13 6/6/12
f 5/5/13 10/16/14 6/6/12
s 4
f 7/7/15 8/8/16 1/9/17
f 1/9/17 8/8/16 2/10/18
s 5
f 2/2/19 8/11/20 4/4/21
f 4/4/21 8/11/20 6/12/22
s 6
f 7/13/23 1/1/24 5/14/25
f 5/14/25 1/1/24 3/3/26
s 2
usemtl lambert2SG
f 10/16/9 9/15/7 6/6/27
f 6/6/27 9/15/7 4/4/28
g default
v -0.276312 1.146523 -0.183012
v -0.141700 1.146523 -0.183012
v -0.276312 1.458818 -0.183012
v -0.141700 1.458818 -0.183012
v -0.276312 1.458818 -0.317623
v -0.141700 1.458818 -0.317623
v -0.276312 1.146523 -0.317623
v -0.141700 1.146523 -0.317623
vt 0.375000 0.000000
vt 0.625000 0.000000
vt 0.375000 0.250000
vt 0.625000 0.250000
vt 0.375000 0.500000
vt 0.625000 0.500000
vt 0.375000 0.750000
vt 0.625000 0.750000
vt 0.375000 1.000000
vt 0.625000 1.000000
vt 0.875000 0.000000
vt 0.875000 0.250000
vt 0.125000 0.000000
vt 0.125000 0.250000
vn 0.000000 0.000000 1.000000
vn 0.000000 0.000000 1.000000
vn 0.000000 0.000000 1.000000
vn 0.000000 0.000000 1.000000
vn 0.000000 1.000000 0.000000
vn 0.000000 1.000000 0.000000
vn 0.000000 1.000000 0.000000
vn 0.000000 1.000000 0.000000
vn 0.000000 0.000000 -1.000000
vn 0.000000 0.000000 -1.000000
vn 0.000000 0.000000 -1.000000
vn 0.000000 0.000000 -1.000000
vn 0.000000 -1.000000 0.000000
vn 0.000000 -1.000000 0.000000
vn 0.000000 -1.000000 0.000000
vn 0.000000 -1.000000 0.000000
vn 1.000000 0.000000 0.000000
vn 1.000000 0.000000 0.000000
vn 1.000000 0.000000 0.000000
vn 1.000000 0.000000 0.000000
vn -1.000000 0.000000 0.000000
vn -1.000000 0.000000 0.000000
vn -1.000000 0.000000 0.000000
vn -1.000000 0.000000 0.000000
s 1
g pCube2
usemtl initialShadingGroup
f 11/17/29 12/18/30 13/19/31
f 13/19/31 12/18/30 14/20/32
s 2
f 13/19/33 14/20/34 15/21/35
f 15/21/35 14/20/34 16/22/36
s 3
f 15/21/37 16/22/38 17/23/39
f 17/23/39 16/22/38 18/24/40
s 4
f 17/23/41 18/24/42 11/25/43
f 11/25/43 18/24/42 12/26/44
s 5
f 12/18/45 18/27/46 14/20/47
f 14/20/47 18/27/46 16/28/48
s 6
f 17/29/49 11/17/50 15/30/51
f 15/30/51 11/17/50 13/19/52
g default
v 0.008923 0.006163 0.763137
v 0.382027 0.006163 0.763137
v -0.019913 0.483456 0.763137
v 0.382027 0.483456 0.763137
v -0.019913 0.483456 0.476292
v 0.382027 0.483456 0.476292
v 0.008923 0.006163 0.476292
v 0.382027 0.006163 0.476292
v 0.166639 0.661212 0.763137
v 0.166639 0.661212 0.476292
vt 0.375000 0.000000
vt 0.625000 0.000000
vt 0.375000 0.250000
vt 0.625000 0.250000
vt 0.375000 0.500000
vt 0.625000 0.500000
vt 0.375000 0.750000
vt 0.625000 0.750000
vt 0.375000 1.000000
vt 0.625000 1.000000
vt 0.875000 0.000000
vt 0.875000 0.250000
vt 0.125000 0.000000
vt 0.125000 0.250000
vt 0.500000 0.250000
vt 0.500000 0.500000
vn 0.000000 0.000000 1.000000
vn 0.000000 0.000000 1.000000
vn 0.000000 0.000000 1.000000
vn 0.000000 0.000000 1.000000
vn 0.000000 0.000000 1.000000
vn -0.689833 0.723969 0.000000
vn 0.000000 1.000000 0.000000
vn -0.689833 0.723969 0.000000
vn 0.000000 1.000000 0.000000
vn 0.000000 0.000000 -1.000000
vn 0.000000 0.000000 -1.000000
vn 0.000000 0.000000 -1.000000
vn 0.000000 0.000000 -1.000000
vn 0.000000 0.000000 -1.000000
vn 0.000000 -1.000000 0.000000
vn 0.000000 -1.000000 0.000000
vn 0.000000 -1.000000 0.000000
vn 0.000000 -1.000000 0.000000
vn 1.000000 0.000000 0.000000
vn 1.000000 0.000000 0.000000
vn 1.000000 0.000000 0.000000
vn 1.000000 0.000000 0.000000
vn -0.998180 -0.060305 0.000000
vn -0.998180 -0.060305 0.000000
vn -0.998180 -0.060305 0.000000
vn -0.998180 -0.060305 0.000000
vn 0.636513 0.771266 0.000000
vn 0.636513 0.771266 0.000000
s 1
g pasted__pCube1 group
usemtl initialShadingGroup
f 20/32/53 22/34/54 19/31/55
f 19/31/55 22/34/54 21/33/56
f 22/34/54 27/45/57 21/33/56
s 2
usemtl lambert2SG
f 21/33/58 27/45/59 23/35/60
f 23/35/60 27/45/59 28/46/61
s 3
usemtl initialShadingGroup
f 26/38/62 25/37/63 24/36/64
f 25/37/63 23/35/65 24/36/64
f 23/35/65 28/46/66 24/36/64
s 4
f 25/37/67 26/38/68 19/39/69
f 19/39/69 26/38/68 20/40/70
s 5
f 20/32/71 26/41/72 22/34/73
f 22/34/73 26/41/72 24/42/74
s 6
f 25/43/75 19/31/76 23/44/77
f 23/44/77 19/31/76 21/33/78
s 2
usemtl lambert2SG
f 28/46/61 27/45/59 24/36/79
f 24/36/79 27/45/59 22/34/80
