# This file uses centimeters as units for non-parametric coordinates.

mtllib puropera.mtl
g default
v 0.104582 0.859168 2.614529
v 0.104582 0.859168 1.960897
v 0.104582 0.859168 1.307264
v 0.104582 0.859168 0.653632
v 0.104582 0.859168 0.000000
v 0.104582 0.859168 -0.653632
v 0.104582 0.859168 -1.307264
v 0.104582 0.859168 -1.960897
v 0.104582 0.859168 -2.614529
v 0.104582 0.924887 2.614529
v 0.104582 0.924887 1.960897
v 0.104582 0.924887 1.307264
v 0.104582 0.924887 0.653632
v 0.104582 0.924887 0.000000
v 0.104582 0.924887 -0.653632
v 0.104582 0.924887 -1.307264
v 0.104582 0.924887 -1.960897
v 0.104582 0.924887 -2.614529
v -0.104582 0.924887 2.614529
v -0.104582 0.924887 1.960897
v -0.104582 0.924887 1.307264
v -0.104582 0.924887 0.653632
v -0.104582 0.924887 -0.000000
v -0.104582 0.924887 -0.653632
v -0.104582 0.924887 -1.307264
v -0.104582 0.924887 -1.960897
v -0.104582 0.924887 -2.614529
v -0.104582 0.859168 2.614529
v -0.104582 0.859168 1.960897
v -0.104582 0.859168 1.307264
v -0.104582 0.859168 0.653632
v -0.104582 0.859168 -0.000000
v -0.104582 0.859168 -0.653632
v -0.104582 0.859168 -1.307264
v -0.104582 0.859168 -1.960897
v -0.104582 0.859168 -2.614529
vt 0.375000 0.000000
vt 0.406250 0.000000
vt 0.437500 0.000000
vt 0.468750 0.000000
vt 0.500000 0.000000
vt 0.531250 0.000000
vt 0.562500 0.000000
vt 0.593750 0.000000
vt 0.625000 0.000000
vt 0.375000 0.250000
vt 0.406250 0.250000
vt 0.437500 0.250000
vt 0.468750 0.250000
vt 0.500000 0.250000
vt 0.531250 0.250000
vt 0.562500 0.250000
vt 0.593750 0.250000
vt 0.625000 0.250000
vt 0.375000 0.500000
vt 0.406250 0.500000
vt 0.437500 0.500000
vt 0.468750 0.500000
vt 0.500000 0.500000
vt 0.531250 0.500000
vt 0.562500 0.500000
vt 0.593750 0.500000
vt 0.625000 0.500000
vt 0.375000 0.750000
vt 0.406250 0.750000
vt 0.437500 0.750000
vt 0.468750 0.750000
vt 0.500000 0.750000
vt 0.531250 0.750000
vt 0.562500 0.750000
vt 0.593750 0.750000
vt 0.625000 0.750000
vt 0.375000 1.000000
vt 0.406250 1.000000
vt 0.437500 1.000000
vt 0.468750 1.000000
vt 0.500000 1.000000
vt 0.531250 1.000000
vt 0.562500 1.000000
vt 0.593750 1.000000
vt 0.625000 1.000000
vt 0.875000 0.000000
vt 0.875000 0.250000
vt 0.125000 0.000000
vt 0.125000 0.250000
vn 1.000000 0.000000 0.000000
vn 1.000000 0.000000 0.000000
vn 1.000000 0.000000 0.000000
vn 1.000000 0.000000 0.000000
vn 1.000000 0.000000 0.000000
vn 1.000000 0.000000 0.000000
vn 1.000000 0.000000 0.000000
vn 1.000000 0.000000 0.000000
vn 1.000000 0.000000 0.000000
vn 1.000000 0.000000 0.000000
vn 1.000000 0.000000 0.000000
vn 1.000000 0.000000 0.000000
vn 1.000000 0.000000 0.000000
vn 1.000000 0.000000 0.000000
vn 1.000000 0.000000 0.000000
vn 1.000000 0.000000 0.000000
vn 1.000000 0.000000 0.000000
vn 1.000000 0.000000 0.000000
vn 0.000000 1.000000 0.000000
vn 0.000000 1.000000 0.000000
vn 0.000000 1.000000 0.000000
vn 0.000000 1.000000 0.000000
vn 0.000000 1.000000 0.000000
vn 0.000000 1.000000 0.000000
vn 0.000000 1.000000 0.000000
vn 0.000000 1.000000 0.000000
vn 0.000000 1.000000 0.000000
vn 0.000000 1.000000 0.000000
vn 0.000000 1.000000 0.000000
vn 0.000000 1.000000 0.000000
vn 0.000000 1.000000 0.000000
vn 0.000000 1.000000 0.000000
vn 0.000000 1.000000 0.000000
vn 0.000000 1.000000 0.000000
vn 0.000000 1.000000 0.000000
vn 0.000000 1.000000 0.000000
vn -1.000000 0.000000 -0.000000
vn -1.000000 0.000000 -0.000000
vn -1.000000 0.000000 -0.000000
vn -1.000000 0.000000 -0.000000
vn -1.000000 0.000000 -0.000000
vn -1.000000 0.000000 -0.000000
vn -1.000000 0.000000 -0.000000
vn -1.000000 0.000000 -0.000000
vn -1.000000 0.000000 -0.000000
vn -1.000000 0.000000 -0.000000
vn -1.000000 0.000000 -0.000000
vn -1.000000 0.000000 -0.000000
vn -1.000000 0.000000 -0.000000
vn -1.000000 0.000000 -0.000000
vn -1.000000 0.000000 -0.000000
vn -1.000000 0.000000 -0.000000
vn -1.000000 0.000000 -0.000000
vn -1.000000 0.000000 -0.000000
vn 0.000000 -1.000000 0.000000
vn 0.000000 -1.000000 0.000000
vn 0.000000 -1.000000 0.000000
vn 0.000000 -1.000000 0.000000
vn 0.000000 -1.000000 0.000000
vn 0.000000 -1.000000 0.000000
vn 0.000000 -1.000000 0.000000
vn 0.000000 -1.000000 0.000000
vn 0.000000 -1.000000 0.000000
vn 0.000000 -1.000000 0.000000
vn 0.000000 -1.000000 0.000000
vn 0.000000 -1.000000 0.000000
vn 0.000000 -1.000000 0.000000
vn 0.000000 -1.000000 0.000000
vn 0.000000 -1.000000 0.000000
vn 0.000000 -1.000000 0.000000
vn 0.000000 -1.000000 0.000000
vn 0.000000 -1.000000 0.000000
vn 0.000000 0.000000 -1.000000
vn 0.000000 0.000000 -1.000000
vn 0.000000 0.000000 -1.000000
vn 0.000000 0.000000 -1.000000
vn -0.000000 0.000000 1.000000
vn -0.000000 0.000000 1.000000
vn -0.000000 0.000000 1.000000
vn -0.000000 0.000000 1.000000
s 1
g pasted__pasted__pCube3 pasted__group3 group
usemtl lambert3SG
f 1/1/1 2/2/2 11/11/3 10/10/4
usemtl lambert2SG
f 2/2/2 3/3/5 12/12/6 11/11/3
f 3/3/5 4/4/7 13/13/8 12/12/6
f 4/4/7 5/5/9 14/14/10 13/13/8
f 5/5/9 6/6/11 15/15/12 14/14/10
f 6/6/11 7/7/13 16/16/14 15/15/12
f 7/7/13 8/8/15 17/17/16 16/16/14
usemtl lambert3SG
f 8/8/15 9/9/17 18/18/18 17/17/16
s 2
f 10/10/19 11/11/20 20/20/21 19/19/22
usemtl lambert2SG
f 11/11/20 12/12/23 21/21/24 20/20/21
f 12/12/23 13/13/25 22/22/26 21/21/24
f 13/13/25 14/14/27 23/23/28 22/22/26
f 14/14/27 15/15/29 24/24/30 23/23/28
f 15/15/29 16/16/31 25/25/32 24/24/30
f 16/16/31 17/17/33 26/26/34 25/25/32
usemtl lambert3SG
f 17/17/33 18/18/35 27/27/36 26/26/34
s 3
f 19/19/37 20/20/38 29/29/39 28/28/40
usemtl lambert2SG
f 20/20/38 21/21/41 30/30/42 29/29/39
f 21/21/41 22/22/43 31/31/44 30/30/42
f 22/22/43 23/23/45 32/32/46 31/31/44
f 23/23/45 24/24/47 33/33/48 32/32/46
f 24/24/47 25/25/49 34/34/50 33/33/48
f 25/25/49 26/26/51 35/35/52 34/34/50
usemtl lambert3SG
f 26/26/51 27/27/53 36/36/54 35/35/52
s 4
f 28/28/55 29/29/56 2/38/57 1/37/58
usemtl lambert2SG
f 29/29/56 30/30/59 3/39/60 2/38/57
f 30/30/59 31/31/61 4/40/62 3/39/60
f 31/31/61 32/32/63 5/41/64 4/40/62
f 32/32/63 33/33/65 6/42/66 5/41/64
f 33/33/65 34/34/67 7/43/68 6/42/66
f 34/34/67 35/35/69 8/44/70 7/43/68
usemtl lambert3SG
f 35/35/69 36/36/71 9/45/72 8/44/70
s off
f 9/9/73 36/46/74 27/47/75 18/18/76
usemtl lambert2SG
f 28/48/77 1/1/78 10/10/79 19/49/80
g default
v 2.614529 0.859168 -0.104582
v 1.960897 0.859168 -0.104582
v 1.307264 0.859168 -0.104582
v 0.653632 0.859168 -0.104582
v 0.000000 0.859168 -0.104582
v -0.653632 0.859168 -0.104582
v -1.307264 0.859168 -0.104582
v -1.960897 0.859168 -0.104582
v -2.614529 0.859168 -0.104582
v 2.614529 0.924887 -0.104582
v 1.960897 0.924887 -0.104582
v 1.307264 0.924887 -0.104582
v 0.653632 0.924887 -0.104582
v 0.000000 0.924887 -0.104582
v -0.653632 0.924887 -0.104582
v -1.307264 0.924887 -0.104582
v -1.960897 0.924887 -0.104582
v -2.614529 0.924887 -0.104582
v 2.614529 0.924887 0.104582
v 1.960897 0.924887 0.104582
v 1.307264 0.924887 0.104582
v 0.653632 0.924887 0.104582
v -0.000000 0.924887 0.104582
v -0.653632 0.924887 0.104582
v -1.307264 0.924887 0.104582
v -1.960897 0.924887 0.104582
v -2.614529 0.924887 0.104582
v 2.614529 0.859168 0.104582
v 1.960897 0.859168 0.104582
v 1.307264 0.859168 0.104582
v 0.653632 0.859168 0.104582
v -0.000000 0.859168 0.104582
v -0.653632 0.859168 0.104582
v -1.307264 0.859168 0.104582
v -1.960897 0.859168 0.104582
v -2.614529 0.859168 0.104582
vt 0.375000 0.000000
vt 0.406250 0.000000
vt 0.437500 0.000000
vt 0.468750 0.000000
vt 0.500000 0.000000
vt 0.531250 0.000000
vt 0.562500 0.000000
vt 0.593750 0.000000
vt 0.625000 0.000000
vt 0.375000 0.250000
vt 0.406250 0.250000
vt 0.437500 0.250000
vt 0.468750 0.250000
vt 0.500000 0.250000
vt 0.531250 0.250000
vt 0.562500 0.250000
vt 0.593750 0.250000
vt 0.625000 0.250000
vt 0.375000 0.500000
vt 0.406250 0.500000
vt 0.437500 0.500000
vt 0.468750 0.500000
vt 0.500000 0.500000
vt 0.531250 0.500000
vt 0.562500 0.500000
vt 0.593750 0.500000
vt 0.625000 0.500000
vt 0.375000 0.750000
vt 0.406250 0.750000
vt 0.437500 0.750000
vt 0.468750 0.750000
vt 0.500000 0.750000
vt 0.531250 0.750000
vt 0.562500 0.750000
vt 0.593750 0.750000
vt 0.625000 0.750000
vt 0.375000 1.000000
vt 0.406250 1.000000
vt 0.437500 1.000000
vt 0.468750 1.000000
vt 0.500000 1.000000
vt 0.531250 1.000000
vt 0.562500 1.000000
vt 0.593750 1.000000
vt 0.625000 1.000000
vt 0.875000 0.000000
vt 0.875000 0.250000
vt 0.125000 0.000000
vt 0.125000 0.250000
vn 0.000000 0.000000 -1.000000
vn 0.000000 0.000000 -1.000000
vn 0.000000 0.000000 -1.000000
vn 0.000000 0.000000 -1.000000
vn 0.000000 0.000000 -1.000000
vn 0.000000 0.000000 -1.000000
vn 0.000000 0.000000 -1.000000
vn 0.000000 0.000000 -1.000000
vn 0.000000 0.000000 -1.000000
vn 0.000000 0.000000 -1.000000
vn 0.000000 0.000000 -1.000000
vn 0.000000 0.000000 -1.000000
vn 0.000000 0.000000 -1.000000
vn 0.000000 0.000000 -1.000000
vn 0.000000 0.000000 -1.000000
vn 0.000000 0.000000 -1.000000
vn 0.000000 0.000000 -1.000000
vn 0.000000 0.000000 -1.000000
vn 0.000000 1.000000 -0.000000
vn 0.000000 1.000000 -0.000000
vn 0.000000 1.000000 -0.000000
vn 0.000000 1.000000 -0.000000
vn 0.000000 1.000000 -0.000000
vn 0.000000 1.000000 -0.000000
vn 0.000000 1.000000 -0.000000
vn 0.000000 1.000000 -0.000000
vn 0.000000 1.000000 -0.000000
vn 0.000000 1.000000 -0.000000
vn 0.000000 1.000000 -0.000000
vn 0.000000 1.000000 -0.000000
vn 0.000000 1.000000 -0.000000
vn 0.000000 1.000000 -0.000000
vn 0.000000 1.000000 -0.000000
vn 0.000000 1.000000 -0.000000
vn 0.000000 1.000000 -0.000000
vn 0.000000 1.000000 -0.000000
vn -0.000000 0.000000 1.000000
vn -0.000000 0.000000 1.000000
vn -0.000000 0.000000 1.000000
vn -0.000000 0.000000 1.000000
vn -0.000000 0.000000 1.000000
vn -0.000000 0.000000 1.000000
vn -0.000000 0.000000 1.000000
vn -0.000000 0.000000 1.000000
vn -0.000000 0.000000 1.000000
vn -0.000000 0.000000 1.000000
vn -0.000000 0.000000 1.000000
vn -0.000000 0.000000 1.000000
vn -0.000000 0.000000 1.000000
vn -0.000000 0.000000 1.000000
vn -0.000000 0.000000 1.000000
vn -0.000000 0.000000 1.000000
vn -0.000000 0.000000 1.000000
vn -0.000000 0.000000 1.000000
vn 0.000000 -1.000000 0.000000
vn 0.000000 -1.000000 0.000000
vn 0.000000 -1.000000 0.000000
vn 0.000000 -1.000000 0.000000
vn 0.000000 -1.000000 0.000000
vn 0.000000 -1.000000 0.000000
vn 0.000000 -1.000000 0.000000
vn 0.000000 -1.000000 0.000000
vn 0.000000 -1.000000 0.000000
vn 0.000000 -1.000000 0.000000
vn 0.000000 -1.000000 0.000000
vn 0.000000 -1.000000 0.000000
vn 0.000000 -1.000000 0.000000
vn 0.000000 -1.000000 0.000000
vn 0.000000 -1.000000 0.000000
vn 0.000000 -1.000000 0.000000
vn 0.000000 -1.000000 0.000000
vn 0.000000 -1.000000 0.000000
vn -1.000000 0.000000 -0.000000
vn -1.000000 0.000000 -0.000000
vn -1.000000 0.000000 -0.000000
vn -1.000000 0.000000 -0.000000
vn 1.000000 0.000000 0.000000
vn 1.000000 0.000000 0.000000
vn 1.000000 0.000000 0.000000
vn 1.000000 0.000000 0.000000
s 1
g group pasted__pasted__pasted__pCube3 pasted__pasted__group3 pasted__group5
usemtl lambert3SG
f 37/50/81 38/51/82 47/60/83 46/59/84
usemtl lambert2SG
f 38/51/82 39/52/85 48/61/86 47/60/83
f 39/52/85 40/53/87 49/62/88 48/61/86
f 40/53/87 41/54/89 50/63/90 49/62/88
f 41/54/89 42/55/91 51/64/92 50/63/90
f 42/55/91 43/56/93 52/65/94 51/64/92
f 43/56/93 44/57/95 53/66/96 52/65/94
usemtl lambert3SG
f 44/57/95 45/58/97 54/67/98 53/66/96
s 2
f 46/59/99 47/60/100 56/69/101 55/68/102
usemtl lambert2SG
f 47/60/100 48/61/103 57/70/104 56/69/101
f 48/61/103 49/62/105 58/71/106 57/70/104
f 49/62/105 50/63/107 59/72/108 58/71/106
f 50/63/107 51/64/109 60/73/110 59/72/108
f 51/64/109 52/65/111 61/74/112 60/73/110
f 52/65/111 53/66/113 62/75/114 61/74/112
usemtl lambert3SG
f 53/66/113 54/67/115 63/76/116 62/75/114
s 3
f 55/68/117 56/69/118 65/78/119 64/77/120
usemtl lambert2SG
f 56/69/118 57/70/121 66/79/122 65/78/119
f 57/70/121 58/71/123 67/80/124 66/79/122
f 58/71/123 59/72/125 68/81/126 67/80/124
f 59/72/125 60/73/127 69/82/128 68/81/126
f 60/73/127 61/74/129 70/83/130 69/82/128
f 61/74/129 62/75/131 71/84/132 70/83/130
usemtl lambert3SG
f 62/75/131 63/76/133 72/85/134 71/84/132
s 4
f 64/77/135 65/78/136 38/87/137 37/86/138
usemtl lambert2SG
f 65/78/136 66/79/139 39/88/140 38/87/137
f 66/79/139 67/80/141 40/89/142 39/88/140
f 67/80/141 68/81/143 41/90/144 40/89/142
f 68/81/143 69/82/145 42/91/146 41/90/144
f 69/82/145 70/83/147 43/92/148 42/91/146
f 70/83/147 71/84/149 44/93/150 43/92/148
usemtl lambert3SG
f 71/84/149 72/85/151 45/94/152 44/93/150
s off
f 45/58/153 72/95/154 63/96/155 54/67/156
usemtl lambert2SG
f 64/97/157 37/50/158 46/59/159 55/98/160
